<?xml version="1.0" encoding="UTF-8"?>
<svg id="katman_1" xmlns="http://www.w3.org/2000/svg" version="1.1" viewBox="0 0 1920 1080">
  <!-- Generator: Adobe Illustrator 30.2.1, SVG Export Plug-In . SVG Version: 2.1.1 Build 1)  -->
  <defs>
    <style>
      .st0 {
        fill: #c6f133;
      }
    </style>
  </defs>
  <path class="st0" d="M418.84,580h77v103h-77v-103ZM512.84,580v103h113.88l-97.08-103h-16.8ZM1313.84,399h-185v87h185v-87ZM296.84,683h91v-169h-91v169ZM530.84,559.98c.17,0,.33.02.5.02,36.73,0,66.5-36.49,66.5-81.5s-29.77-81.5-66.5-81.5c-.17,0-.33.01-.5.02v-.02h-112v163h112v-.02ZM205.47,552.68s-10.77-39.38,27.2-69.98c0,0,28.61-23.23,73.09-9.92l38.53-63.18s-56.94-27.48-125.51,0c0,0-64.59,23.8-83.58,99.72,0,0-13.88,57.23,18.98,106.24,0,0,38.38,67.36,127.65,67.36v-72.85s-61.36,4.92-76.37-57.41ZM1402.38,402.5c-37.88,11.44-45.77,47.29-45.77,47.29-9.41,58.48,38.65,72.21,38.65,72.21h154.58v-123h-111.94c-18.87-.25-35.52,3.5-35.52,3.5ZM1231.06,683h83.78v-81.16l-185.84.16c25.54,78.69,102.06,81,102.06,81ZM1487.54,540.16c0-.09,0-.16,0-.16h-110.73l26.98,53h-45.95v90h129.7c0-.05,0-.11,0-.16,34.77-2.33,62.3-33.37,62.3-71.34s-27.53-69.01-62.3-71.34ZM1658.95,506.28l115.23-107.28h-186.35v284h199.86l-128.75-176.72ZM916.84,486h48v197h79v-197h53v-87h-180v87ZM1313.84,504h-185v81h185v-81ZM903.43,539.12c0,78.46-63.6,142.06-142.06,142.06s-142.06-63.6-142.06-142.06,63.6-142.06,142.06-142.06,142.06,63.6,142.06,142.06ZM799.28,539.12c0-20.94-16.97-37.91-37.91-37.91s-37.91,16.97-37.91,37.91,16.97,37.91,37.91,37.91,37.91-16.97,37.91-37.91Z"/>
</svg>